<?xml version="1.0" standalone="no"?>
<!DOCTYPE svg PUBLIC "-//W3C//DTD SVG 20010904//EN"
 "http://www.w3.org/TR/2001/REC-SVG-20010904/DTD/svg10.dtd">
<svg version="1.0" xmlns="http://www.w3.org/2000/svg"
 width="700.000000pt" height="700.000000pt" viewBox="0 0 700.000000 700.000000"
 preserveAspectRatio="xMidYMid meet">
<metadata>
Created by potrace 1.11, written by Peter Selinger 2001-2013
</metadata>
<g transform="translate(0.000000,700.000000) scale(0.100000,-0.100000)"
fill="#000000" stroke="none">
<path d="M1750 4830 c0 -494 4 -736 11 -772 23 -106 75 -173 169 -217 51 -24
69 -26 235 -31 l180 -5 3 -257 2 -258 -149 0 c-211 0 -286 -19 -359 -91 -42
-41 -66 -89 -81 -157 -8 -37 -11 -290 -11 -817 l0 -765 305 0 305 0 0 905 0
905 1140 0 1140 0 0 -905 0 -905 305 0 306 0 -3 793 c-3 594 -7 801 -16 828
-29 87 -106 163 -191 190 -20 7 -116 14 -214 16 l-177 5 2 256 3 257 180 5
c166 5 184 7 235 31 94 44 146 111 169 217 7 36 11 278 11 772 l0 720 -305 0
-305 0 0 -860 0 -860 -1140 0 -1140 0 0 860 0 860 -305 0 -305 0 0 -720z"/>
</g>
</svg>
